<?xml version="1.0" encoding="UTF-8"?>
<!DOCTYPE svg PUBLIC "-//W3C//DTD SVG 1.1//EN"
    "http://www.w3.org/Graphics/SVG/1.1/DTD/svg11.dtd" >
<svg contentScriptType="text/ecmascript" width="1956.0"
     xmlns:xlink="http://www.w3.org/1999/xlink" zoomAndPan="magnify"
     contentStyleType="text/css"
     viewBox="-962.000000 -951.000000 1956.000000 1922.000000" height="1922.0"
     preserveAspectRatio="xMidYMid meet" xmlns="http://www.w3.org/2000/svg"
     version="1.1">
    <g id="edges">
        <path 
              d="M -757.646301,-91.821823 C -668.403931,-72.343475 -563.757996,90.737564 -583.236328,179.979904"
              class="edge-65 edge-58" />
        <path 
              d="M -386.653351,455.195526 C -481.013062,439.468994 -598.962891,274.339630 -583.236328,179.979904"
              class="edge-56 edge-58" />
        <path 
              d="M -386.653351,455.195526 C -436.012573,458.661194 -515.249878,389.820862 -518.715515,340.461639"
              class="edge-56 edge-73" />
        <path 
              d="M -386.653351,455.195526 C -450.375885,504.317047 -619.641907,482.415588 -668.763428,418.693054"
              class="edge-56 edge-80" />
        <path 
              d="M 349.834564,-237.201859 C 384.347748,-181.685684 352.843292,-46.641640 297.327118,-12.128447"
              class="edge-1 edge-12" />
        <path 
              d="M -508.703217,-370.779785 C -542.471313,-450.960175 -472.852936,-621.882874 -392.672546,-655.651001"
              class="edge-67 edge-68" />
        <path 
              d="M -508.703217,-370.779785 C -551.245239,-350.065063 -646.130310,-382.805969 -666.845032,-425.347961"
              class="edge-67 edge-86" />
        <path 
              d="M 35.263725,-97.946846 C -26.210346,-183.501877 9.911087,-404.045502 95.466110,-465.519592"
              class="edge-2 edge-96" />
        <path 
              d="M 35.263725,-97.946846 C 15.388294,-54.721867 -79.262344,-19.697540 -122.487320,-39.572971"
              class="edge-2 edge-98" />
        <path 
              d="M 35.263725,-97.946846 C 62.476723,-43.056160 20.960192,80.099358 -33.930492,107.312355"
              class="edge-2 edge-69" />
        <path 
              d="M 35.263725,-97.946846 C 62.476723,-43.056160 20.960192,80.099358 -33.930492,107.312355"
              class="edge-2 edge-69" />
        <path 
              d="M 35.263725,-97.946846 C -52.092594,-141.612457 -117.628647,-338.145325 -73.963043,-425.501648"
              class="edge-2 edge-105" />
        <path 
              d="M 35.263725,-97.946846 C -35.874767,-52.082081 -211.379639,-89.992661 -257.244415,-161.131165"
              class="edge-2 edge-62" />
        <path 
              d="M -539.127014,-558.054138 C -584.489380,-577.876099 -622.799866,-675.652588 -602.977905,-721.014954"
              class="edge-55 edge-47" />
        <path 
              d="M 295.598541,171.660339 C 189.610153,169.805878 33.409252,8.041553 35.263725,-97.946846"
              class="edge-27 edge-2" />
        <path 
              d="M 295.598541,171.660339 C 377.430298,199.319916 458.688629,363.556976 431.029053,445.388733"
              class="edge-27 edge-25" />
        <path 
              d="M -583.236328,179.979904 C -569.425049,134.171326 -479.995331,86.175331 -434.186768,99.986580"
              class="edge-58 edge-99" />
        <path 
              d="M -364.021912,258.595184 C -282.298157,287.493439 -203.059860,453.426514 -231.958130,535.150269"
              class="edge-57 edge-61" />
        <path 
              d="M 95.686050,-758.465759 C 87.592712,-814.437012 159.409515,-910.533813 215.380722,-918.627136"
              class="edge-24 edge-95" />
        <path 
              d="M 95.686050,-758.465759 C 15.432400,-747.508240 -121.384323,-851.452454 -132.341827,-931.706116"
              class="edge-24 edge-101" />
        <path 
              d="M 95.686050,-758.465759 C 49.329617,-783.047791 16.668053,-889.455505 41.250103,-935.811951"
              class="edge-24 edge-102" />
        <path 
              d="M 95.686050,-758.465759 C 33.946613,-686.002319 -167.357712,-669.916260 -239.821182,-731.655701"
              class="edge-24 edge-84" />
        <path 
              d="M 780.208191,-71.974388 C 793.170044,11.484303 687.424805,156.115143 603.966125,169.077011"
              class="edge-4 edge-20" />
        <path 
              d="M -33.930492,107.312355 C -81.018929,95.646652 -134.153015,7.515463 -122.487320,-39.572971"
              class="edge-69 edge-98" />
        <path 
              d="M -33.930492,107.312355 C -115.446907,185.898453 -355.600647,181.502991 -434.186768,99.986580"
              class="edge-69 edge-99" />
        <path 
              d="M -33.930492,107.312355 C 0.389370,144.466080 -3.861427,251.676453 -41.015152,285.996307"
              class="edge-69 edge-7" />
        <path 
              d="M -33.930492,107.312355 C -52.851486,154.390305 -151.849884,196.625717 -198.927826,177.704727"
              class="edge-69 edge-85" />
        <path 
              d="M -33.930492,107.312355 C 12.031570,232.485474 -106.785011,489.188202 -231.958130,535.150269"
              class="edge-69 edge-61" />
        <path 
              d="M -33.930492,107.312355 C 63.424202,214.625488 48.486542,521.627258 -58.826595,618.981934"
              class="edge-69 edge-90" />
        <path 
              d="M -33.930492,107.312355 C -132.281982,98.286438 -266.270325,-62.779675 -257.244415,-161.131165"
              class="edge-69 edge-62" />
        <path 
              d="M -583.236328,179.979904 C -638.246399,195.959686 -744.731140,137.414307 -760.710938,82.404251"
              class="edge-58 edge-117" />
        <path 
              d="M -364.021912,258.595184 C -423.587860,286.715027 -555.116516,239.545837 -583.236328,179.979904"
              class="edge-57 edge-58" />
        <path 
              d="M -583.236328,179.979904 C -599.075256,226.231308 -692.210815,271.849945 -738.462219,256.010986"
              class="edge-58 edge-93" />
        <path 
              d="M -583.236328,179.979904 C -655.599609,104.015549 -650.198120,-118.475983 -574.233765,-190.839310"
              class="edge-58 edge-60" />
        <path 
              d="M 395.335815,-859.360291 C 355.584747,-779.251465 175.794922,-718.714722 95.686050,-758.465759"
              class="edge-100 edge-24" />
        <path 
              d="M -932.657043,-98.185127 C -899.340698,-63.700073 -901.093750,38.002041 -935.578796,71.318398"
              class="edge-59 edge-77" />
        <path 
              d="M -932.657043,-98.185127 C -960.449646,-138.104141 -942.260071,-239.671570 -902.341003,-267.464172"
              class="edge-59 edge-81" />
        <path 
              d="M -583.236328,179.979904 C -410.913025,217.540375 -208.768784,532.366028 -246.329269,704.689331"
              class="edge-58 edge-34" />
        <path 
              d="M -195.574829,-563.844971 C -163.330261,-516.669617 -185.726379,-397.539825 -232.901703,-365.295227"
              class="edge-5 edge-50" />
        <path 
              d="M 267.248077,-743.424255 C 229.927368,-712.120178 126.990158,-721.145081 95.686050,-758.465759"
              class="edge-6 edge-24" />
        <path 
              d="M -326.175385,868.158508 C -373.933594,782.713440 -317.403229,582.908447 -231.958130,535.150269"
              class="edge-74 edge-61" />
        <path 
              d="M -41.015152,285.996307 C -76.302940,388.963776 -283.685883,490.483307 -386.653351,455.195526"
              class="edge-7 edge-56" />
        <path 
              d="M -41.015152,285.996307 C -75.335014,248.842590 -71.084213,141.632217 -33.930492,107.312355"
              class="edge-7 edge-69" />
        <path 
              d="M -41.015152,285.996307 C -61.629955,335.692444 -167.096375,379.314453 -216.792511,358.699646"
              class="edge-7 edge-76" />
        <path 
              d="M -41.015152,285.996307 C -32.971645,158.702896 170.033707,-20.171951 297.327118,-12.128447"
              class="edge-7 edge-12" />
        <path 
              d="M -41.015152,285.996307 C -9.835358,322.385345 -17.649216,423.738556 -54.038246,454.918365"
              class="edge-7 edge-109" />
        <path 
              d="M -41.015152,285.996307 C -52.190601,204.293121 53.600998,64.975174 135.304184,53.799728"
              class="edge-7 edge-88" />
        <path 
              d="M -41.015152,285.996307 C 22.019688,356.155731 11.332825,555.947144 -58.826595,618.981934"
              class="edge-7 edge-90" />
        <path 
              d="M -41.015152,285.996307 C -17.988930,242.110336 82.379349,210.820709 126.265320,233.846939"
              class="edge-7 edge-52" />
        <path 
              d="M 564.771729,552.338867 C 516.633179,557.697388 436.387573,493.527283 431.029053,445.388733"
              class="edge-26 edge-25" />
        <path 
              d="M 417.689575,-652.164124 C 468.237183,-653.723206 546.397339,-580.240540 547.956421,-529.692932"
              class="edge-29 edge-28" />
        <path 
              d="M 943.933105,7.322186 C 871.792358,67.120438 673.883850,48.606712 614.085632,-23.534025"
              class="edge-8 edge-21" />
        <path 
              d="M -361.287964,-482.800446 C -368.366882,-430.913239 -456.816010,-363.700867 -508.703217,-370.779785"
              class="edge-78 edge-67" />
        <path 
              d="M -281.216278,28.240517 C -215.944763,-5.402267 -67.573280,42.040833 -33.930492,107.312355"
              class="edge-103 edge-69" />
        <path 
              d="M 930.024597,-183.592499 C 833.455444,-220.805206 744.420898,-421.477905 781.633606,-518.046997"
              class="edge-9 edge-48" />
        <path 
              d="M -728.494812,-263.870667 C -705.918335,-329.210815 -574.043396,-393.356262 -508.703217,-370.779785"
              class="edge-79 edge-67" />
        <path 
              d="M 923.283447,192.079285 C 854.819519,251.342300 663.229126,237.540924 603.966125,169.077011"
              class="edge-11 edge-20" />
        <path 
              d="M 454.517914,79.879974 C 493.076233,117.012405 495.215027,230.548477 458.082611,269.106781"
              class="edge-104 edge-13" />
        <path 
              d="M 297.327118,-12.128447 C 385.725250,11.967506 482.178558,180.708618 458.082611,269.106781"
              class="edge-12 edge-13" />
        <path 
              d="M -406.355194,648.277100 C -441.031128,605.720398 -429.210022,489.871460 -386.653351,455.195526"
              class="edge-64 edge-56" />
        <path 
              d="M -406.355194,648.277100 C -441.031128,605.720398 -429.210022,489.871460 -386.653351,455.195526"
              class="edge-64 edge-56" />
        <path 
              d="M -406.355194,648.277100 C -394.101135,590.772339 -289.462921,522.896240 -231.958130,535.150269"
              class="edge-64 edge-61" />
        <path 
              d="M -406.355194,648.277100 C -454.501770,656.033813 -538.356689,595.448914 -546.113403,547.302307"
              class="edge-64 edge-89" />
        <path 
              d="M -574.233765,-190.839310 C -504.894257,-248.295547 -314.700653,-230.470673 -257.244415,-161.131165"
              class="edge-60 edge-62" />
        <path 
              d="M 675.807251,-649.637756 C 723.290710,-644.484863 786.786499,-565.530457 781.633606,-518.046997"
              class="edge-14 edge-48" />
        <path 
              d="M -97.160324,-236.764877 C -42.911907,-235.486084 36.542522,-152.195251 35.263725,-97.946846"
              class="edge-106 edge-2" />
        <path 
              d="M 278.589539,350.375732 C 260.645905,396.416473 164.669296,438.562073 118.628563,420.618439"
              class="edge-45 edge-97" />
        <path 
              d="M 278.589539,350.375732 C 167.472839,364.267059 -20.039165,218.429047 -33.930492,107.312355"
              class="edge-45 edge-69" />
        <path 
              d="M 278.589539,350.375732 C 350.746124,430.650360 338.569061,659.297180 258.294434,731.453796"
              class="edge-45 edge-32" />
        <path 
              d="M 278.589539,350.375732 C 264.827545,471.580200 62.377876,632.743896 -58.826595,618.981934"
              class="edge-45 edge-90" />
        <path 
              d="M 450.560242,-107.915176 C 385.683929,-211.749954 444.121613,-464.816620 547.956421,-529.692932"
              class="edge-16 edge-28" />
        <path 
              d="M 450.560242,-107.915176 C 439.070953,-58.111202 347.131104,-0.639166 297.327118,-12.128447"
              class="edge-16 edge-12" />
        <path 
              d="M 450.560242,-107.915176 C 389.711273,-66.182846 235.839340,-94.857788 194.107010,-155.706757"
              class="edge-16 edge-19" />
        <path 
              d="M 450.560242,-107.915176 C 536.639893,-83.197914 628.683411,82.997398 603.966125,169.077011"
              class="edge-16 edge-20" />
        <path 
              d="M 450.560242,-107.915176 C 500.141541,-123.744026 598.256775,-73.115334 614.085632,-23.534025"
              class="edge-16 edge-21" />
        <path 
              d="M 71.211105,-286.577606 C 101.747787,-241.661972 80.179352,-128.483521 35.263725,-97.946846"
              class="edge-108 edge-2" />
        <path 
              d="M -246.329269,704.689331 C -289.005066,579.887939 -165.816589,328.672089 -41.015152,285.996307"
              class="edge-34 edge-7" />
        <path 
              d="M -246.329269,704.689331 C -277.362854,667.907288 -268.740173,566.183899 -231.958130,535.150269"
              class="edge-34 edge-61" />
        <path 
              d="M -246.329269,704.689331 C -225.970215,650.047302 -113.468613,598.622864 -58.826595,618.981934"
              class="edge-34 edge-90" />
        <path 
              d="M -246.329269,704.689331 C -184.813965,734.963257 -137.951904,872.647095 -168.225815,934.162354"
              class="edge-34 edge-51" />
        <path 
              d="M 431.029053,445.388733 C 517.646606,489.118927 581.977722,684.640564 538.247498,771.258118"
              class="edge-25 edge-15" />
        <path 
              d="M 431.029053,445.388733 C 381.538544,456.874054 290.074860,399.866241 278.589539,350.375732"
              class="edge-25 edge-45" />
        <path 
              d="M 431.029053,445.388733 C 469.261932,489.896759 459.849213,614.008118 415.341187,652.240967"
              class="edge-25 edge-18" />
        <path 
              d="M 431.029053,445.388733 C 455.789948,396.747223 565.893555,360.926270 614.535034,385.687164"
              class="edge-25 edge-36" />
        <path 
              d="M 431.029053,445.388733 C 418.663513,494.717529 326.122040,550.162354 276.793243,537.796814"
              class="edge-25 edge-92" />
        <path 
              d="M -602.977905,-721.014954 C -603.862671,-670.268494 -681.309448,-595.475830 -732.055908,-596.360596"
              class="edge-47 edge-71" />
        <path 
              d="M -602.977905,-721.014954 C -593.891296,-768.901611 -508.431305,-827.101624 -460.544617,-818.015015"
              class="edge-47 edge-44" />
        <path 
              d="M -602.977905,-721.014954 C -593.845520,-617.468262 -735.466919,-448.449768 -839.013611,-439.317413"
              class="edge-47 edge-87" />
        <path 
              d="M -602.977905,-721.014954 C -577.419373,-814.716309 -398.529480,-916.930603 -304.828094,-891.372070"
              class="edge-47 edge-91" />
        <path 
              d="M 194.107010,-155.706757 C 173.890335,-112.386108 78.584366,-77.730164 35.263725,-97.946846"
              class="edge-19 edge-2" />
        <path 
              d="M 194.107010,-155.706757 C 201.103333,-57.495438 64.280823,100.316032 -33.930492,107.312355"
              class="edge-19 edge-69" />
        <path 
              d="M 194.107010,-155.706757 C 102.751831,-66.521347 -168.059006,-69.775986 -257.244415,-161.131165"
              class="edge-19 edge-62" />
        <path 
              d="M -431.605255,-86.369568 C -411.685425,-136.194061 -307.068909,-181.051025 -257.244415,-161.131165"
              class="edge-113 edge-62" />
        <path 
              d="M 781.633606,-518.046997 C 829.928894,-505.875488 884.114502,-415.175262 871.942993,-366.879974"
              class="edge-48 edge-42" />
        <path 
              d="M 781.633606,-518.046997 C 686.185852,-520.697998 546.990723,-667.846130 549.641724,-763.293884"
              class="edge-48 edge-46" />
        <path 
              d="M -231.958130,535.150269 C -278.888123,550.098328 -371.705231,502.125519 -386.653351,455.195526"
              class="edge-61 edge-56" />
        <path 
              d="M 603.966125,169.077011 C 623.741943,121.699005 724.472717,80.295776 771.850708,100.071609"
              class="edge-20 edge-31" />
        <path 
              d="M 603.966125,169.077011 C 594.795410,218.259659 507.265259,278.277527 458.082611,269.106781"
              class="edge-20 edge-13" />
        <path 
              d="M 603.966125,169.077011 C 653.328979,163.639542 735.529541,229.527679 740.966980,278.890564"
              class="edge-20 edge-83" />
        <path 
              d="M 603.966125,169.077011 C 575.150574,270.412079 379.924591,379.191315 278.589539,350.375732"
              class="edge-20 edge-45" />
        <path 
              d="M 603.966125,169.077011 C 567.467834,128.530914 573.539490,12.964283 614.085632,-23.534025"
              class="edge-20 edge-21" />
        <path 
              d="M 603.966125,169.077011 C 567.467834,128.530914 573.539490,12.964283 614.085632,-23.534025"
              class="edge-20 edge-21" />
        <path 
              d="M 614.085632,-23.534025 C 549.367432,-106.543961 576.805176,-328.136047 659.815063,-392.854218"
              class="edge-21 edge-66" />
        <path 
              d="M 614.085632,-23.534025 C 553.015076,42.098793 362.959961,48.942139 297.327118,-12.128447"
              class="edge-21 edge-12" />
        <path 
              d="M 614.085632,-23.534025 C 598.507141,-94.828239 682.080688,-225.137344 753.374878,-240.715866"
              class="edge-21 edge-35" />
        <path 
              d="M -257.244415,-161.131165 C -349.465912,-152.769119 -500.341156,-278.558289 -508.703217,-370.779785"
              class="edge-62 edge-67" />
        <path 
              d="M -257.244415,-161.131165 C -349.465912,-152.769119 -500.341156,-278.558289 -508.703217,-370.779785"
              class="edge-62 edge-67" />
        <path 
              d="M -257.244415,-161.131165 C -294.333954,-62.360382 -498.124420,30.161457 -596.895203,-6.928086"
              class="edge-62 edge-70" />
        <path 
              d="M -257.244415,-161.131165 C -304.546997,-156.655136 -382.214874,-220.894913 -386.690918,-268.197479"
              class="edge-62 edge-72" />
        <path 
              d="M 276.793243,537.796814 C 239.668274,499.953339 240.746063,387.500702 278.589539,350.375732"
              class="edge-92 edge-45" />
        <path 
              d="M -232.901703,-365.295227 C -289.158936,-311.231842 -454.639832,-314.522552 -508.703217,-370.779785"
              class="edge-50 edge-67" />
        <path 
              d="M -232.901703,-365.295227 C -98.585930,-310.567963 20.796791,-27.003410 -33.930492,107.312355"
              class="edge-50 edge-69" />
        <path 
              d="M -232.901703,-365.295227 C -236.734940,-457.555359 -104.094604,-601.695435 -11.834450,-605.528687"
              class="edge-50 edge-75" />
        <path 
              d="M -232.901703,-365.295227 C -281.596619,-476.049103 -188.508163,-715.222290 -77.754272,-763.917236"
              class="edge-50 edge-112" />
        <path 
              d="M -232.901703,-365.295227 C -196.937439,-319.593872 -211.543060,-197.095428 -257.244415,-161.131165"
              class="edge-50 edge-62" />
        <path 
              d="M 206.269577,-586.300110 C 289.955750,-497.748901 282.658203,-239.392929 194.107010,-155.706757"
              class="edge-22 edge-19" />
        <path 
              d="M 194.107010,-155.706757 C 201.103333,-57.495438 64.280823,100.316032 -33.930492,107.312355"
              class="edge-19 edge-69" />
        <path 
              d="M 194.107010,-155.706757 C 161.528732,-206.654297 189.082611,-331.942993 240.030151,-364.521271"
              class="edge-19 edge-119" />
        <path 
              d="M -246.329269,704.689331 C -225.970215,650.047302 -113.468613,598.622864 -58.826595,618.981934"
              class="edge-34 edge-90" />
        <path 
              d="M 114.116791,602.661133 C 82.792267,640.513977 -20.973755,650.306458 -58.826595,618.981934"
              class="edge-121 edge-90" />
        <path 
              d="M -58.826595,618.981934 C 2.313515,621.936035 89.592529,718.077332 86.638420,779.217468"
              class="edge-90 edge-120" />
        <path 
              d="M -58.826595,618.981934 C -31.280441,659.342957 -50.502739,761.203674 -90.863762,788.749878"
              class="edge-90 edge-94" />
        <path 
              d="M -746.430786,578.362122 C -647.689270,571.401245 -489.135773,709.072327 -482.174927,807.813843"
              class="edge-63 edge-125" />
        <path 
              d="M -746.430786,578.362122 C -798.805115,566.928101 -860.215454,471.215637 -848.781433,418.841370"
              class="edge-63 edge-124" />
        <path 
              d="M -746.430786,578.362122 C -845.898438,544.606812 -944.466919,344.772369 -910.711609,245.304718"
              class="edge-63 edge-123" />
        <path 
              d="M -621.273254,706.485107 C -671.929321,705.892029 -747.023865,629.018188 -746.430786,578.362122"
              class="edge-126 edge-63" />
        <path 
              d="M 349.834564,-237.201859 C 395.837036,-231.489670 456.272430,-153.917648 450.560242,-107.915176"
              class="edge-1 edge-16" />
        <path 
              d="M 478.511322,-355.199890 C 522.378052,-300.152740 505.607391,-151.781906 450.560242,-107.915176"
              class="edge-127 edge-16" />
        <path 
              d="M 359.896942,-486.554810 C 453.757538,-428.959534 508.155518,-201.775757 450.560242,-107.915176"
              class="edge-128 edge-16" />
        <path 
              d="M 586.209290,-210.767624 C 579.649963,-163.067322 498.260559,-101.355858 450.560242,-107.915176"
              class="edge-129 edge-16" />
        <path 
              d="M 614.535034,385.687164 C 569.099243,344.478912 562.757874,214.512833 603.966125,169.077011"
              class="edge-36 edge-20" />
        <path 
              d="M 614.535034,385.687164 C 683.800903,426.411499 726.613281,591.396912 685.888916,660.662781"
              class="edge-36 edge-130" />
        <path 
              d="M 614.535034,385.687164 C 664.290161,331.672363 819.944946,325.282867 873.959717,375.037964"
              class="edge-36 edge-131" />
        <path 
              d="M 564.771729,552.338867 C 541.394043,509.055878 571.252075,409.064850 614.535034,385.687164"
              class="edge-26 edge-36" />
        <path 
              d="M 768.531738,507.608551 C 713.348145,514.023621 620.950073,440.870789 614.535034,385.687164"
              class="edge-133 edge-36" />
        <path 
              d="M 383.360870,860.529785 C 396.483856,811.698120 489.415833,758.135071 538.247498,771.258118"
              class="edge-137 edge-15" />
        <path 
              d="M 258.294434,731.453796 C 286.207367,778.413940 257.636536,890.723633 210.676376,918.636536"
              class="edge-32 edge-140" />
        <path 
              d="M 25.231966,946.680176 C 56.712120,903.982605 167.978760,887.156372 210.676376,918.636536"
              class="edge-141 edge-140" />
    </g>
    <g id="nodes">
        <circle r="50.0" cx="349.83456"
                class="node-1" cy="-237.20186" />
        <circle r="50.0" cx="35.263725"
                class="node-2" cy="-97.946846" />
        <circle r="50.0" cx="780.2082"
                class="node-4" cy="-71.97439" />
        <circle r="50.0" cx="-195.57483"
                class="node-5" cy="-563.845" />
        <circle r="50.0" cx="267.24808"
                class="node-6" cy="-743.42426" />
        <circle r="50.0" cx="-41.015152"
                class="node-7" cy="285.9963" />
        <circle r="50.0" cx="943.9331"
                class="node-8" cy="7.3221855" />
        <circle r="50.0" cx="930.0246"
                class="node-9" cy="-183.5925" />
        <circle r="50.0" cx="923.28345"
                class="node-11" cy="192.07928" />
        <circle r="50.0" cx="297.32712"
                class="node-12" cy="-12.128447" />
        <circle r="50.0" cx="458.0826"
                class="node-13" cy="269.10678" />
        <circle r="50.0" cx="675.80725"
                class="node-14" cy="-649.63776" />
        <circle r="50.0" cx="538.2475"
                class="node-15" cy="771.2581" />
        <circle r="50.0" cx="450.56024"
                class="node-16" cy="-107.91518" />
        <circle r="50.0" cx="415.3412"
                class="node-18" cy="652.24097" />
        <circle r="50.0" cx="194.10701"
                class="node-19" cy="-155.70676" />
        <circle r="50.0" cx="603.9661"
                class="node-20" cy="169.07701" />
        <circle r="50.0" cx="614.08563"
                class="node-21" cy="-23.534025" />
        <circle r="50.0" cx="206.26958"
                class="node-22" cy="-586.3001" />
        <circle r="50.0" cx="95.68605"
                class="node-24" cy="-758.46576" />
        <circle r="50.0" cx="431.02905"
                class="node-25" cy="445.38873" />
        <circle r="50.0" cx="564.7717"
                class="node-26" cy="552.33887" />
        <circle r="43.0" cx="295.59854"
                class="node-27" cy="171.66034" />
        <circle r="43.0" cx="547.9564"
                class="node-28" cy="-529.69293" />
        <circle r="43.0" cx="417.68958"
                class="node-29" cy="-652.1641" />
        <circle r="43.0" cx="771.8507"
                class="node-31" cy="100.07161" />
        <circle r="43.0" cx="258.29443"
                class="node-32" cy="731.4538" />
        <circle r="43.0" cx="-246.32927"
                class="node-34" cy="704.68933" />
        <circle r="43.0" cx="753.3749"
                class="node-35" cy="-240.71587" />
        <circle r="43.0" cx="614.53503"
                class="node-36" cy="385.68716" />
        <circle r="36.0" cx="871.943"
                class="node-42" cy="-366.87997" />
        <circle r="36.0" cx="-460.54462"
                class="node-44" cy="-818.015" />
        <circle r="36.0" cx="278.58954"
                class="node-45" cy="350.37573" />
        <circle r="36.0" cx="549.6417"
                class="node-46" cy="-763.2939" />
        <circle r="36.0" cx="-602.9779"
                class="node-47" cy="-721.01495" />
        <circle r="36.0" cx="781.6336"
                class="node-48" cy="-518.047" />
        <circle r="36.0" cx="-232.9017"
                class="node-50" cy="-365.29523" />
        <circle r="36.0" cx="-168.22581"
                class="node-51" cy="934.16235" />
        <circle r="36.0" cx="126.26532"
                class="node-52" cy="233.84694" />
        <circle r="36.0" cx="-539.127"
                class="node-55" cy="-558.05414" />
        <circle r="29.0" cx="-386.65335"
                class="node-56" cy="455.19553" />
        <circle r="29.0" cx="-364.0219"
                class="node-57" cy="258.59518" />
        <circle r="29.0" cx="-583.2363"
                class="node-58" cy="179.9799" />
        <circle r="29.0" cx="-932.65704"
                class="node-59" cy="-98.18513" />
        <circle r="29.0" cx="-574.23376"
                class="node-60" cy="-190.83931" />
        <circle r="29.0" cx="-231.95813"
                class="node-61" cy="535.15027" />
        <circle r="29.0" cx="-257.24442"
                class="node-62" cy="-161.13116" />
        <circle r="29.0" cx="-746.4308"
                class="node-63" cy="578.3621" />
        <circle r="29.0" cx="-406.3552"
                class="node-64" cy="648.2771" />
        <circle r="22.0" cx="-757.6463"
                class="node-65" cy="-91.82182" />
        <circle r="22.0" cx="659.81506"
                class="node-66" cy="-392.85422" />
        <circle r="22.0" cx="-508.70322"
                class="node-67" cy="-370.7798" />
        <circle r="22.0" cx="-392.67255"
                class="node-68" cy="-655.651" />
        <circle r="22.0" cx="-33.930492"
                class="node-69" cy="107.312355" />
        <circle r="22.0" cx="-596.8952"
                class="node-70" cy="-6.928086" />
        <circle r="22.0" cx="-732.0559"
                class="node-71" cy="-596.3606" />
        <circle r="22.0" cx="-386.69092"
                class="node-72" cy="-268.19748" />
        <circle r="22.0" cx="-518.7155"
                class="node-73" cy="340.46164" />
        <circle r="22.0" cx="-326.17538"
                class="node-74" cy="868.1585" />
        <circle r="22.0" cx="-11.83445"
                class="node-75" cy="-605.5287" />
        <circle r="22.0" cx="-216.79251"
                class="node-76" cy="358.69965" />
        <circle r="22.0" cx="-935.5788"
                class="node-77" cy="71.3184" />
        <circle r="22.0" cx="-361.28796"
                class="node-78" cy="-482.80045" />
        <circle r="22.0" cx="-728.4948"
                class="node-79" cy="-263.87067" />
        <circle r="22.0" cx="-668.7634"
                class="node-80" cy="418.69305" />
        <circle r="22.0" cx="-902.341"
                class="node-81" cy="-267.46417" />
        <circle r="22.0" cx="740.967"
                class="node-83" cy="278.89056" />
        <circle r="22.0" cx="-239.82118"
                class="node-84" cy="-731.6557" />
        <circle r="22.0" cx="-198.92783"
                class="node-85" cy="177.70473" />
        <circle r="22.0" cx="-666.84503"
                class="node-86" cy="-425.34796" />
        <circle r="22.0" cx="-839.0136"
                class="node-87" cy="-439.3174" />
        <circle r="22.0" cx="135.30418"
                class="node-88" cy="53.79973" />
        <circle r="22.0" cx="-546.1134"
                class="node-89" cy="547.3023" />
        <circle r="22.0" cx="-58.826595"
                class="node-90" cy="618.98193" />
        <circle r="22.0" cx="-304.8281"
                class="node-91" cy="-891.3721" />
        <circle r="22.0" cx="276.79324"
                class="node-92" cy="537.7968" />
        <circle r="22.0" cx="-738.4622"
                class="node-93" cy="256.011" />
        <circle r="22.0" cx="-90.86376"
                class="node-94" cy="788.7499" />
        <circle r="15.0" cx="215.38072"
                class="node-95" cy="-918.62714" />
        <circle r="15.0" cx="95.46611"
                class="node-96" cy="-465.5196" />
        <circle r="15.0" cx="118.62856"
                class="node-97" cy="420.61844" />
        <circle r="15.0" cx="-122.48732"
                class="node-98" cy="-39.57297" />
        <circle r="15.0" cx="-434.18677"
                class="node-99" cy="99.98658" />
        <circle r="15.0" cx="395.33582"
                class="node-100" cy="-859.3603" />
        <circle r="15.0" cx="-132.34183"
                class="node-101" cy="-931.7061" />
        <circle r="15.0" cx="41.250103"
                class="node-102" cy="-935.81195" />
        <circle r="15.0" cx="-281.21628"
                class="node-103" cy="28.240517" />
        <circle r="15.0" cx="454.5179"
                class="node-104" cy="79.879974" />
        <circle r="15.0" cx="-73.96304"
                class="node-105" cy="-425.50165" />
        <circle r="15.0" cx="-97.160324"
                class="node-106" cy="-236.76488" />
        <circle r="15.0" cx="71.211105"
                class="node-108" cy="-286.5776" />
        <circle r="15.0" cx="-54.038246"
                class="node-109" cy="454.91837" />
        <circle r="15.0" cx="-77.75427"
                class="node-112" cy="-763.91724" />
        <circle r="15.0" cx="-431.60526"
                class="node-113" cy="-86.36957" />
        <circle r="15.0" cx="-760.71094"
                class="node-117" cy="82.40425" />
        <circle r="15.0" cx="240.03015"
                class="node-119" cy="-364.52127" />
        <circle r="15.0" cx="86.63842"
                class="node-120" cy="779.21747" />
        <circle r="15.0" cx="114.11679"
                class="node-121" cy="602.66113" />
        <circle r="22.0" cx="-910.7116"
                class="node-123" cy="245.30472" />
        <circle r="22.0" cx="-848.78143"
                class="node-124" cy="418.84137" />
        <circle r="22.0" cx="-482.17493"
                class="node-125" cy="807.81384" />
        <circle r="36.0" cx="-621.27325"
                class="node-126" cy="706.4851" />
        <circle r="36.0" cx="478.51132"
                class="node-127" cy="-355.1999" />
        <circle r="36.0" cx="359.89694"
                class="node-128" cy="-486.5548" />
        <circle r="36.0" cx="586.2093"
                class="node-129" cy="-210.76762" />
        <circle r="36.0" cx="685.8889"
                class="node-130" cy="660.6628" />
        <circle r="36.0" cx="873.9597"
                class="node-131" cy="375.03796" />
        <circle r="36.0" cx="768.53174"
                class="node-133" cy="507.60855" />
        <circle r="36.0" cx="383.36087"
                class="node-137" cy="860.5298" />
        <circle r="36.0" cx="210.67638"
                class="node-140" cy="918.63654" />
        <circle r="10.0" cx="25.231966"
                class="node-141" cy="946.6802" />
    </g>
</svg>