<?xml version="1.0" encoding="UTF-8"?>
<!DOCTYPE svg PUBLIC "-//W3C//DTD SVG 1.1//EN"
    "http://www.w3.org/Graphics/SVG/1.1/DTD/svg11.dtd" >
<svg contentScriptType="text/ecmascript" width="2046.0"
     xmlns:xlink="http://www.w3.org/1999/xlink" zoomAndPan="magnify"
     contentStyleType="text/css"
     viewBox="-1036.000000 -948.000000 2046.000000 2017.000000" height="2017.0"
     preserveAspectRatio="xMidYMid meet" xmlns="http://www.w3.org/2000/svg"
     version="1.1">
    <g id="edges">
        <path 
              d="M -355.694427,12.533138 C -343.100037,28.226780 -347.748901,70.658836 -363.442535,83.253235"
              class="edge-65 edge-58"/>
        <path 
              d="M -467.621704,431.200684 C -516.375366,340.775360 -453.867859,132.006897 -363.442535,83.253235"
              class="edge-56 edge-58"/>
        <path 
              d="M -467.621704,431.200684 C -453.496552,462.208221 -478.820099,529.907227 -509.827637,544.032410"
              class="edge-56 edge-73"/>
        <path 
              d="M -467.621704,431.200684 C -434.636261,434.573395 -390.217163,489.110565 -393.589874,522.096008"
              class="edge-56 edge-80"/>
        <path 
              d="M 734.910339,462.733856 C 635.250610,453.618683 499.433838,290.456360 508.549011,190.796661"
              class="edge-1 edge-12"/>
        <path 
              d="M -469.703247,-324.106659 C -475.004089,-289.233734 -535.264771,-244.875641 -570.137634,-250.176483"
              class="edge-67 edge-68"/>
        <path 
              d="M -469.703247,-324.106659 C -500.242004,-308.471954 -569.502258,-330.828094 -585.136963,-361.366852"
              class="edge-67 edge-86"/>
        <path 
              d="M 88.284615,-289.513611 C 48.399506,-276.550934 -30.872143,-316.934601 -43.834812,-356.819702"
              class="edge-2 edge-96"/>
        <path 
              d="M 88.284615,-289.513611 C 122.948196,-249.381454 114.745346,-137.187836 74.613197,-102.524254"
              class="edge-2 edge-98"/>
        <path 
              d="M 88.284615,-289.513611 C 128.533005,-213.945099 75.552826,-40.219772 -0.015682,0.028614"
              class="edge-2 edge-69"/>
        <path 
              d="M 88.284615,-289.513611 C 128.533005,-213.945099 75.552826,-40.219772 -0.015682,0.028614"
              class="edge-2 edge-69"/>
        <path 
              d="M 88.284615,-289.513611 C 93.964188,-245.626572 36.652969,-171.276627 -7.234077,-165.597061"
              class="edge-2 edge-105"/>
        <path 
              d="M 88.284615,-289.513611 C 57.446178,-211.352173 -106.053673,-140.367645 -184.215118,-171.206085"
              class="edge-2 edge-62"/>
        <path 
              d="M -941.072815,-359.557373 C -918.439453,-349.664978 -899.328003,-300.876282 -909.220398,-278.242920"
              class="edge-55 edge-47"/>
        <path 
              d="M 216.012756,-444.025085 C 221.369431,-387.577179 144.732544,-294.870270 88.284615,-289.513611"
              class="edge-27 edge-2"/>
        <path 
              d="M 216.012756,-444.025085 C 223.493576,-490.440491 304.337952,-548.842407 350.753357,-541.361572"
              class="edge-27 edge-25"/>
        <path 
              d="M -363.442535,83.253235 C -334.290771,42.817116 -229.908890,25.890610 -189.472778,55.042397"
              class="edge-58 edge-99"/>
        <path 
              d="M -342.350525,180.724350 C -325.342834,200.040878 -328.806091,254.527222 -348.122620,271.534912"
              class="edge-57 edge-61"/>
        <path 
              d="M -125.644623,909.773804 C -156.410416,922.381042 -221.470047,895.143311 -234.077332,864.377502"
              class="edge-24 edge-95"/>
        <path 
              d="M -125.644623,909.773804 C -120.847717,875.172485 -61.750397,830.465942 -27.149096,835.262817"
              class="edge-24 edge-101"/>
        <path 
              d="M -125.644623,909.773804 C -158.606567,896.488281 -188.121124,827.117004 -174.835571,794.155090"
              class="edge-24 edge-102"/>
        <path 
              d="M -125.644623,909.773804 C -95.700211,891.847839 -23.894680,909.875549 -5.968731,939.819946"
              class="edge-24 edge-84"/>
        <path 
              d="M 655.417419,-170.181183 C 698.196228,-185.916367 785.967163,-145.350967 801.702393,-102.572174"
              class="edge-4 edge-20"/>
        <path 
              d="M -0.015682,0.028614 C -5.600479,-35.407738 39.176846,-96.939453 74.613197,-102.524254"
              class="edge-69 edge-98"/>
        <path 
              d="M -0.015682,0.028614 C -26.904343,48.922791 -140.578598,81.931061 -189.472778,55.042397"
              class="edge-69 edge-99"/>
        <path 
              d="M -0.015682,0.028614 C 88.844788,75.690453 108.642723,322.473938 32.980885,411.334381"
              class="edge-69 edge-7"/>
        <path 
              d="M -0.015682,0.028614 C -5.540115,31.327503 -60.775093,69.989182 -92.073982,64.464752"
              class="edge-69 edge-85"/>
        <path 
              d="M -0.015682,0.028614 C -15.335804,123.951256 -224.199966,286.855042 -348.122620,271.534912"
              class="edge-69 edge-61"/>
        <path 
              d="M -0.015682,0.028614 C 46.973991,22.492455 83.762741,126.672707 61.298904,173.662384"
              class="edge-69 edge-90"/>
        <path 
              d="M -0.015682,0.028614 C -71.102509,2.621563 -181.622162,-100.119263 -184.215118,-171.206085"
              class="edge-69 edge-62"/>
        <path 
              d="M -363.442535,83.253235 C -392.251434,108.888756 -473.918091,104.128662 -499.553589,75.319756"
              class="edge-58 edge-117"/>
        <path 
              d="M -342.350525,180.724350 C -366.063171,165.448532 -378.718353,106.965858 -363.442535,83.253235"
              class="edge-57 edge-58"/>
        <path 
              d="M -363.442535,83.253235 C -405.466522,86.656509 -473.607452,28.725452 -477.010712,-13.298537"
              class="edge-58 edge-93"/>
        <path 
              d="M -363.442535,83.253235 C -369.115417,25.542349 -291.058411,-69.533302 -233.347504,-75.206177"
              class="edge-58 edge-60"/>
        <path 
              d="M -106.006485,830.203430 C -94.020035,850.045105 -105.802917,897.787354 -125.644623,909.773804"
              class="edge-100 edge-24"/>
        <path 
              d="M 735.613586,745.631409 C 729.080017,762.294250 694.285522,777.488098 677.622681,770.954529"
              class="edge-59 edge-77"/>
        <path 
              d="M 735.613586,745.631409 C 730.546814,728.455872 748.710083,695.092346 765.885620,690.025574"
              class="edge-59 edge-81"/>
        <path 
              d="M -363.442535,83.253235 C -280.582428,66.312302 -130.880844,165.191116 -113.939911,248.051239"
              class="edge-58 edge-34"/>
        <path 
              d="M -261.397003,-546.314575 C -242.020599,-524.334778 -245.925629,-462.300476 -267.905426,-442.924072"
              class="edge-5 edge-50"/>
        <path 
              d="M -168.634430,1018.524414 C -181.786591,988.176331 -155.992706,922.925964 -125.644623,909.773804"
              class="edge-6 edge-24"/>
        <path 
              d="M -303.932861,338.600983 C -326.184021,334.025726 -352.697876,293.786072 -348.122620,271.534912"
              class="edge-74 edge-61"/>
        <path 
              d="M 32.980885,411.334381 C -63.166374,515.428162 -363.527924,527.347961 -467.621704,431.200684"
              class="edge-7 edge-56"/>
        <path 
              d="M 32.980885,411.334381 C -55.879585,335.672546 -75.677521,88.889076 -0.015682,0.028614"
              class="edge-7 edge-69"/>
        <path 
              d="M 32.980885,411.334381 C 22.208637,453.023682 -56.483704,499.399261 -98.173004,488.627014"
              class="edge-7 edge-76"/>
        <path 
              d="M 32.980885,411.334381 C 83.986969,272.113220 369.327850,139.790588 508.549011,190.796661"
              class="edge-7 edge-12"/>
        <path 
              d="M 32.980885,411.334381 C 48.458672,451.032990 12.127463,533.797546 -27.571133,549.275330"
              class="edge-7 edge-109"/>
        <path 
              d="M 32.980885,411.334381 C 73.995850,439.510834 93.253632,543.297913 65.077194,584.312866"
              class="edge-7 edge-88"/>
        <path 
              d="M 32.980885,411.334381 C -8.889912,358.136383 8.100899,215.533173 61.298904,173.662384"
              class="edge-7 edge-90"/>
        <path 
              d="M 32.980885,411.334381 C 85.800865,406.894775 171.690277,479.465302 176.129898,532.285278"
              class="edge-7 edge-52"/>
        <path 
              d="M 482.809052,-625.766968 C 473.278992,-582.474731 394.045563,-531.831543 350.753357,-541.361572"
              class="edge-26 edge-25"/>
        <path 
              d="M 351.618896,831.158081 C 342.550446,805.846436 366.915222,754.276367 392.226837,745.207886"
              class="edge-29 edge-28"/>
        <path 
              d="M 814.978516,327.146851 C 794.441650,300.618774 803.428406,230.021393 829.956482,209.484512"
              class="edge-8 edge-21"/>
        <path 
              d="M -476.712341,-386.600616 C -462.811737,-375.503662 -458.606293,-338.007263 -469.703247,-324.106659"
              class="edge-78 edge-67"/>
        <path 
              d="M -58.019539,-24.866955 C -41.439655,-31.488611 -6.637338,-16.551271 -0.015682,0.028614"
              class="edge-103 edge-69"/>
        <path 
              d="M -967.949707,585.644409 C -951.023376,563.215515 -891.990540,554.961731 -869.561646,571.888062"
              class="edge-9 edge-48"/>
        <path 
              d="M -467.034454,-261.335663 C -480.122406,-273.356110 -481.723694,-311.018707 -469.703247,-324.106659"
              class="edge-79 edge-67"/>
        <path 
              d="M 801.454956,-261.291870 C 833.248413,-229.597412 833.396851,-134.365601 801.702393,-102.572174"
              class="edge-11 edge-20"/>
        <path 
              d="M 445.999634,12.879835 C 472.752563,0.896746 530.856628,23.051531 542.839722,49.804474"
              class="edge-104 edge-13"/>
        <path 
              d="M 508.549011,190.796661 C 487.208740,155.740082 507.783142,71.144775 542.839722,49.804474"
              class="edge-12 edge-13"/>
        <path 
              d="M -531.538269,342.875061 C -501.089813,347.756866 -462.739899,400.752228 -467.621704,431.200684"
              class="edge-64 edge-56"/>
        <path 
              d="M -531.538269,342.875061 C -501.089813,347.756866 -462.739899,400.752228 -467.621704,431.200684"
              class="edge-64 edge-56"/>
        <path 
              d="M -531.538269,342.875061 C -509.123169,291.923889 -399.073792,249.119812 -348.122620,271.534912"
              class="edge-64 edge-61"/>
        <path 
              d="M -531.538269,342.875061 C -555.111816,346.835693 -596.413147,317.416382 -600.373779,293.842834"
              class="edge-64 edge-89"/>
        <path 
              d="M -233.347504,-75.206177 C -242.721008,-104.232635 -213.241577,-161.832581 -184.215118,-171.206085"
              class="edge-60 edge-62"/>
        <path 
              d="M -825.185181,661.127258 C -851.908325,652.154724 -878.534180,598.611206 -869.561646,571.888062"
              class="edge-14 edge-48"/>
        <path 
              d="M 21.593765,-232.463943 C 23.521999,-257.212036 63.536507,-291.441833 88.284615,-289.513611"
              class="edge-106 edge-2"/>
        <path 
              d="M 340.560760,-259.401215 C 368.316376,-246.858322 391.135498,-186.410538 378.592590,-158.654907"
              class="edge-45 edge-97"/>
        <path 
              d="M 340.560760,-259.401215 C 324.331421,-139.399948 119.985588,16.257938 -0.015682,0.028614"
              class="edge-45 edge-69"/>
        <path 
              d="M 340.560760,-259.401215 C 195.219879,-286.313995 17.577766,-544.694458 44.490547,-690.035339"
              class="edge-45 edge-32"/>
        <path 
              d="M 340.560760,-259.401215 C 371.321106,-116.936127 203.763992,142.902039 61.298904,173.662384"
              class="edge-45 edge-90"/>
        <path 
              d="M 479.305695,457.878510 C 519.355774,532.760132 467.108490,705.157776 392.226837,745.207886"
              class="edge-16 edge-28"/>
        <path 
              d="M 479.305695,457.878510 C 431.737976,398.613464 449.283966,238.364365 508.549011,190.796661"
              class="edge-16 edge-12"/>
        <path 
              d="M 479.305695,457.878510 C 321.616455,423.417175 136.774597,135.191223 171.235947,-22.498022"
              class="edge-16 edge-19"/>
        <path 
              d="M 479.305695,457.878510 C 431.694885,281.309052 625.132874,-54.961380 801.702393,-102.572174"
              class="edge-16 edge-20"/>
        <path 
              d="M 479.305695,457.878510 C 499.757050,338.069550 710.147461,189.033173 829.956482,209.484512"
              class="edge-16 edge-21"/>
        <path 
              d="M 49.897018,-369.116913 C 73.495201,-360.873779 96.527756,-313.111786 88.284615,-289.513611"
              class="edge-108 edge-2"/>
        <path 
              d="M -113.939911,248.051239 C -51.899124,251.323730 36.253357,349.293579 32.980885,411.334381"
              class="edge-34 edge-7"/>
        <path 
              d="M -113.939911,248.051239 C -156.079727,299.584503 -296.589325,313.674713 -348.122620,271.534912"
              class="edge-34 edge-61"/>
        <path 
              d="M -113.939911,248.051239 C -93.769920,198.125702 11.373369,153.492401 61.298904,173.662384"
              class="edge-34 edge-90"/>
        <path 
              d="M -113.939911,248.051239 C -103.172356,280.673340 -135.954208,345.757874 -168.576324,356.525421"
              class="edge-34 edge-51"/>
        <path 
              d="M 350.753357,-541.361572 C 293.355225,-596.467834 289.917419,-765.224365 345.023682,-822.622498"
              class="edge-25 edge-15"/>
        <path 
              d="M 350.753357,-541.361572 C 405.106903,-482.931000 398.991333,-313.754761 340.560760,-259.401215"
              class="edge-25 edge-45"/>
        <path 
              d="M 350.753357,-541.361572 C 306.317566,-543.501343 242.873535,-613.364685 245.013306,-657.800476"
              class="edge-25 edge-18"/>
        <path 
              d="M 350.753357,-541.361572 C 397.967499,-602.064392 559.842896,-622.297363 620.545715,-575.083191"
              class="edge-25 edge-36"/>
        <path 
              d="M 350.753357,-541.361572 C 399.567902,-521.595276 443.140259,-418.723938 423.373932,-369.909393"
              class="edge-25 edge-92"/>
        <path 
              d="M -909.220398,-278.242920 C -882.403931,-288.861053 -826.252014,-264.563599 -815.633911,-237.747147"
              class="edge-47 edge-71"/>
        <path 
              d="M -909.220398,-278.242920 C -914.012512,-247.057159 -967.979370,-207.466721 -999.165161,-212.258865"
              class="edge-47 edge-44"/>
        <path 
              d="M -909.220398,-278.242920 C -904.305603,-306.468872 -854.594482,-341.435577 -826.368530,-336.520782"
              class="edge-47 edge-87"/>
        <path 
              d="M -909.220398,-278.242920 C -884.331787,-262.980865 -869.892029,-202.754913 -885.154053,-177.866333"
              class="edge-47 edge-91"/>
        <path 
              d="M 171.235947,-22.498022 C 101.242554,-59.310871 51.471760,-219.520218 88.284615,-289.513611"
              class="edge-19 edge-2"/>
        <path 
              d="M 171.235947,-22.498022 C 141.490952,16.257633 38.739975,29.773615 -0.015682,0.028614"
              class="edge-19 edge-69"/>
        <path 
              d="M 171.235947,-22.498022 C 70.404121,18.850571 -142.866516,-70.374268 -184.215118,-171.206085"
              class="edge-19 edge-62"/>
        <path 
              d="M -114.099602,-242.315872 C -113.900757,-214.070816 -155.970062,-171.404938 -184.215118,-171.206085"
              class="edge-113 edge-62"/>
        <path 
              d="M -869.561646,571.888062 C -858.995605,545.413452 -803.434509,521.550537 -776.959900,532.116577"
              class="edge-48 edge-42"/>
        <path 
              d="M -869.561646,571.888062 C -892.733398,553.697998 -900.205933,491.655365 -882.015869,468.483643"
              class="edge-48 edge-46"/>
        <path 
              d="M -348.122620,271.534912 C -340.089264,327.367889 -411.788727,423.167328 -467.621704,431.200684"
              class="edge-61 edge-56"/>
        <path 
              d="M 801.702393,-102.572174 C 836.977112,-128.120560 928.211731,-113.531052 953.760132,-78.256332"
              class="edge-20 edge-31"/>
        <path 
              d="M 801.702393,-102.572174 C 780.405212,-20.324310 625.087585,71.101685 542.839722,49.804474"
              class="edge-20 edge-13"/>
        <path 
              d="M 801.702393,-102.572174 C 803.709717,-153.568466 883.215149,-227.051910 934.211487,-225.044571"
              class="edge-20 edge-83"/>
        <path 
              d="M 801.702393,-102.572174 C 678.108276,-41.709656 401.423279,-135.807068 340.560760,-259.401215"
              class="edge-20 edge-45"/>
        <path 
              d="M 801.702393,-102.572174 C 869.764526,-45.811653 886.716980,141.422363 829.956482,209.484512"
              class="edge-20 edge-21"/>
        <path 
              d="M 801.702393,-102.572174 C 869.764526,-45.811653 886.716980,141.422363 829.956482,209.484512"
              class="edge-20 edge-21"/>
        <path 
              d="M 829.956482,209.484512 C 867.201111,203.193008 932.505371,249.622757 938.796875,286.867432"
              class="edge-21 edge-66"/>
        <path 
              d="M 829.956482,209.484512 C 761.937439,270.028442 569.092957,258.815735 508.549011,190.796661"
              class="edge-21 edge-12"/>
        <path 
              d="M 829.956482,209.484512 C 844.258606,169.257431 926.052368,130.369980 966.279419,144.672073"
              class="edge-21 edge-35"/>
        <path 
              d="M -184.215118,-171.206085 C -271.892853,-144.688568 -443.185730,-236.428925 -469.703247,-324.106659"
              class="edge-62 edge-67"/>
        <path 
              d="M -184.215118,-171.206085 C -271.892853,-144.688568 -443.185730,-236.428925 -469.703247,-324.106659"
              class="edge-62 edge-67"/>
        <path 
              d="M -184.215118,-171.206085 C -210.872650,-143.408325 -292.555573,-141.697968 -320.353333,-168.355499"
              class="edge-62 edge-70"/>
        <path 
              d="M -184.215118,-171.206085 C -226.227493,-174.003525 -285.049896,-241.218246 -282.252472,-283.230621"
              class="edge-62 edge-72"/>
        <path 
              d="M 423.373932,-369.909393 C 428.912933,-331.245148 379.225006,-264.940216 340.560760,-259.401215"
              class="edge-92 edge-45"/>
        <path 
              d="M -267.905426,-442.924072 C -284.501495,-378.801025 -405.580200,-307.510590 -469.703247,-324.106659"
              class="edge-50 edge-67"/>
        <path 
              d="M -267.905426,-442.924072 C -125.736938,-407.911469 34.996914,-142.139893 -0.015682,0.028614"
              class="edge-50 edge-69"/>
        <path 
              d="M -267.905426,-442.924072 C -251.787308,-468.497101 -189.250580,-482.679474 -163.677567,-466.561340"
              class="edge-50 edge-75"/>
        <path 
              d="M -267.905426,-442.924072 C -294.866638,-433.436432 -349.539917,-459.646790 -359.027557,-486.608002"
              class="edge-50 edge-112"/>
        <path 
              d="M -267.905426,-442.924072 C -196.823761,-405.318542 -146.609589,-242.287750 -184.215118,-171.206085"
              class="edge-50 edge-62"/>
        <path 
              d="M 286.965759,45.721893 C 250.175812,55.223877 180.737930,14.291925 171.235947,-22.498022"
              class="edge-22 edge-19"/>
        <path 
              d="M 171.235947,-22.498022 C 141.490952,16.257633 38.739975,29.773615 -0.015682,0.028614"
              class="edge-19 edge-69"/>
        <path 
              d="M 171.235947,-22.498022 C 192.000366,-59.648521 278.872711,-84.227654 316.023224,-63.463245"
              class="edge-19 edge-119"/>
        <path 
              d="M -113.939911,248.051239 C -93.769920,198.125702 11.373369,153.492401 61.298904,173.662384"
              class="edge-34 edge-90"/>
        <path 
              d="M 65.750381,69.859779 C 85.620605,91.510597 82.949722,153.792145 61.298904,173.662384"
              class="edge-121 edge-90"/>
        <path 
              d="M 61.298904,173.662384 C 73.157753,143.996368 135.445038,117.285652 165.111053,129.144501"
              class="edge-90 edge-120"/>
        <path 
              d="M 61.298904,173.662384 C 88.588654,167.354721 138.984787,198.827866 145.292450,226.117615"
              class="edge-90 edge-94"/>
        <path 
              d="M -405.487061,-843.089478 C -427.657288,-839.685852 -466.018127,-867.835815 -469.421753,-890.006042"
              class="edge-63 edge-125"/>
        <path 
              d="M -405.487061,-843.089478 C -382.861237,-848.356628 -341.021790,-822.318542 -335.754669,-799.692749"
              class="edge-63 edge-124"/>
        <path 
              d="M -405.487061,-843.089478 C -404.709686,-865.781067 -369.506226,-898.652405 -346.814667,-897.875000"
              class="edge-63 edge-123"/>
        <path 
              d="M -450.462677,-778.682068 C -454.349030,-800.558655 -427.363647,-839.203125 -405.487061,-843.089478"
              class="edge-126 edge-63"/>
        <path 
              d="M 734.910339,462.733856 C 682.818359,512.883728 529.455566,509.970520 479.305695,457.878510"
              class="edge-1 edge-16"/>
        <path 
              d="M 535.910522,550.498413 C 506.065552,543.295410 472.102661,487.723450 479.305695,457.878510"
              class="edge-127 edge-16"/>
        <path 
              d="M 383.105286,407.318970 C 412.457275,398.190796 470.177521,428.526520 479.305695,457.878510"
              class="edge-128 edge-16"/>
        <path 
              d="M 402.078674,534.460693 C 402.207642,503.698883 448.543854,457.749542 479.305695,457.878510"
              class="edge-129 edge-16"/>
        <path 
              d="M 620.545715,-575.083191 C 751.279236,-516.812317 859.973267,-233.305710 801.702393,-102.572174"
              class="edge-36 edge-20"/>
        <path 
              d="M 620.545715,-575.083191 C 596.935669,-604.537720 605.702515,-684.134460 635.157043,-707.744507"
              class="edge-36 edge-130"/>
        <path 
              d="M 620.545715,-575.083191 C 637.942444,-609.458679 715.600830,-634.926880 749.976318,-617.530151"
              class="edge-36 edge-131"/>
        <path 
              d="M 482.809052,-625.766968 C 520.493164,-643.177490 603.135193,-612.767334 620.545715,-575.083191"
              class="edge-26 edge-36"/>
        <path 
              d="M 677.405029,-497.670135 C 650.550537,-501.780914 616.434998,-548.228699 620.545715,-575.083191"
              class="edge-133 edge-36"/>
        <path 
              d="M 310.951202,-911.367737 C 335.514740,-900.433228 355.958252,-847.186035 345.023682,-822.622498"
              class="edge-137 edge-15"/>
        <path 
              d="M 44.490547,-690.035339 C 18.673426,-698.842834 -6.841065,-750.779663 1.966396,-776.596802"
              class="edge-32 edge-140"/>
        <path 
              d="M -26.322168,-823.905823 C -11.202651,-820.101746 5.770487,-791.716309 1.966396,-776.596802"
              class="edge-141 edge-140"/>
    </g>
    <g id="nodes">
        <circle r="50.0" cx="734.91034"
                class="node-1" cy="462.73386"
               />
        <circle r="50.0" cx="88.284615"
                class="node-2" cy="-289.5136"
               />
        <circle r="50.0" cx="655.4174"
                class="node-4" cy="-170.18118"
               />
        <circle r="50.0" cx="-261.397"
                class="node-5" cy="-546.3146"
               />
        <circle r="50.0" cx="-168.63443"
                class="node-6" cy="1018.5244"
               />
        <circle r="50.0" cx="32.980885"
                class="node-7" cy="411.33438"
               />
        <circle r="50.0" cx="814.9785"
                class="node-8" cy="327.14685"
               />
        <circle r="50.0" cx="-967.9497"
                class="node-9" cy="585.6444"
               />
        <circle r="50.0" cx="801.45496"
                class="node-11" cy="-261.29187"
               />
        <circle r="50.0" cx="508.549"
                class="node-12" cy="190.79666"
               />
        <circle r="50.0" cx="542.8397"
                class="node-13" cy="49.804474"
               />
        <circle r="50.0" cx="-825.1852"
                class="node-14" cy="661.12726"
               />
        <circle r="50.0" cx="345.02368"
                class="node-15" cy="-822.6225"
               />
        <circle r="50.0" cx="479.3057"
                class="node-16" cy="457.8785"
               />
        <circle r="50.0" cx="245.0133"
                class="node-18" cy="-657.8005"
               />
        <circle r="50.0" cx="171.23595"
                class="node-19" cy="-22.498022"
               />
        <circle r="50.0" cx="801.7024"
                class="node-20" cy="-102.572174"
               />
        <circle r="50.0" cx="829.9565"
                class="node-21" cy="209.48451"
               />
        <circle r="50.0" cx="286.96576"
                class="node-22" cy="45.721893"
               />
        <circle r="50.0" cx="-125.64462"
                class="node-24" cy="909.7738"
               />
        <circle r="50.0" cx="350.75336"
                class="node-25" cy="-541.3616"
               />
        <circle r="50.0" cx="482.80905"
                class="node-26" cy="-625.76697"
               />
        <circle r="43.0" cx="216.01276"
                class="node-27" cy="-444.0251"
               />
        <circle r="43.0" cx="392.22684"
                class="node-28" cy="745.2079"
               />
        <circle r="43.0" cx="351.6189"
                class="node-29" cy="831.1581"
               />
        <circle r="43.0" cx="953.76013"
                class="node-31" cy="-78.25633"
               />
        <circle r="43.0" cx="44.490547"
                class="node-32" cy="-690.03534"
               />
        <circle r="43.0" cx="-113.93991"
                class="node-34" cy="248.05124"
               />
        <circle r="43.0" cx="966.2794"
                class="node-35" cy="144.67207"
               />
        <circle r="43.0" cx="620.5457"
                class="node-36" cy="-575.0832"
               />
        <circle r="36.0" cx="-776.9599"
                class="node-42" cy="532.1166"
               />
        <circle r="36.0" cx="-999.16516"
                class="node-44" cy="-212.25887"
               />
        <circle r="36.0" cx="340.56076"
                class="node-45" cy="-259.4012"
               />
        <circle r="36.0" cx="-882.01587"
                class="node-46" cy="468.48364"
               />
        <circle r="36.0" cx="-909.2204"
                class="node-47" cy="-278.24292"
               />
        <circle r="36.0" cx="-869.56165"
                class="node-48" cy="571.88806"
               />
        <circle r="36.0" cx="-267.90543"
                class="node-50" cy="-442.92407"
               />
        <circle r="36.0" cx="-168.57632"
                class="node-51" cy="356.52542"
               />
        <circle r="36.0" cx="176.1299"
                class="node-52" cy="532.2853"
               />
        <circle r="36.0" cx="-941.0728"
                class="node-55" cy="-359.55737"
               />
        <circle r="29.0" cx="-467.6217"
                class="node-56" cy="431.20068"
               />
        <circle r="29.0" cx="-342.35052"
                class="node-57" cy="180.72435"
               />
        <circle r="29.0" cx="-363.44254"
                class="node-58" cy="83.253235"
               />
        <circle r="29.0" cx="735.6136"
                class="node-59" cy="745.6314"
               />
        <circle r="29.0" cx="-233.3475"
                class="node-60" cy="-75.20618"
               />
        <circle r="29.0" cx="-348.12262"
                class="node-61" cy="271.5349"
               />
        <circle r="29.0" cx="-184.21512"
                class="node-62" cy="-171.20609"
               />
        <circle r="29.0" cx="-405.48706"
                class="node-63" cy="-843.0895"
               />
        <circle r="29.0" cx="-531.53827"
                class="node-64" cy="342.87506"
               />
        <circle r="22.0" cx="-355.69443"
                class="node-65" cy="12.533138"
               />
        <circle r="22.0" cx="938.7969"
                class="node-66" cy="286.86743"
               />
        <circle r="22.0" cx="-469.70325"
                class="node-67" cy="-324.10666"
               />
        <circle r="22.0" cx="-570.13763"
                class="node-68" cy="-250.17648"
               />
        <circle r="22.0" cx="-0.015681595"
                class="node-69" cy="0.028613819"
               />
        <circle r="22.0" cx="-320.35333"
                class="node-70" cy="-168.3555"
               />
        <circle r="22.0" cx="-815.6339"
                class="node-71" cy="-237.74715"
               />
        <circle r="22.0" cx="-282.25247"
                class="node-72" cy="-283.23062"
               />
        <circle r="22.0" cx="-509.82764"
                class="node-73" cy="544.0324"
               />
        <circle r="22.0" cx="-303.93286"
                class="node-74" cy="338.60098"
               />
        <circle r="22.0" cx="-163.67757"
                class="node-75" cy="-466.56134"
               />
        <circle r="22.0" cx="-98.173004"
                class="node-76" cy="488.627"
               />
        <circle r="22.0" cx="677.6227"
                class="node-77" cy="770.9545"
               />
        <circle r="22.0" cx="-476.71234"
                class="node-78" cy="-386.60062"
               />
        <circle r="22.0" cx="-467.03445"
                class="node-79" cy="-261.33566"
               />
        <circle r="22.0" cx="-393.58987"
                class="node-80" cy="522.096"
               />
        <circle r="22.0" cx="765.8856"
                class="node-81" cy="690.0256"
               />
        <circle r="22.0" cx="934.2115"
                class="node-83" cy="-225.04457"
               />
        <circle r="22.0" cx="-5.968731"
                class="node-84" cy="939.81995"
               />
        <circle r="22.0" cx="-92.07398"
                class="node-85" cy="64.46475"
               />
        <circle r="22.0" cx="-585.13696"
                class="node-86" cy="-361.36685"
               />
        <circle r="22.0" cx="-826.3685"
                class="node-87" cy="-336.52078"
               />
        <circle r="22.0" cx="65.077194"
                class="node-88" cy="584.31287"
               />
        <circle r="22.0" cx="-600.3738"
                class="node-89" cy="293.84283"
               />
        <circle r="22.0" cx="61.298904"
                class="node-90" cy="173.66238"
               />
        <circle r="22.0" cx="-885.15405"
                class="node-91" cy="-177.86633"
               />
        <circle r="22.0" cx="423.37393"
                class="node-92" cy="-369.9094"
               />
        <circle r="22.0" cx="-477.0107"
                class="node-93" cy="-13.298537"
               />
        <circle r="22.0" cx="145.29245"
                class="node-94" cy="226.11761"
               />
        <circle r="15.0" cx="-234.07733"
                class="node-95" cy="864.3775"
               />
        <circle r="15.0" cx="-43.834812"
                class="node-96" cy="-356.8197"
               />
        <circle r="15.0" cx="378.5926"
                class="node-97" cy="-158.6549"
               />
        <circle r="15.0" cx="74.6132"
                class="node-98" cy="-102.524254"
               />
        <circle r="15.0" cx="-189.47278"
                class="node-99" cy="55.042397"
               />
        <circle r="15.0" cx="-106.006485"
                class="node-100" cy="830.2034"
               />
        <circle r="15.0" cx="-27.149096"
                class="node-101" cy="835.2628"
               />
        <circle r="15.0" cx="-174.83557"
                class="node-102" cy="794.1551"
               />
        <circle r="15.0" cx="-58.01954"
                class="node-103" cy="-24.866955"
               />
        <circle r="15.0" cx="445.99963"
                class="node-104" cy="12.879835"
               />
        <circle r="15.0" cx="-7.234077"
                class="node-105" cy="-165.59706"
               />
        <circle r="15.0" cx="21.593765"
                class="node-106" cy="-232.46394"
               />
        <circle r="15.0" cx="49.89702"
                class="node-108" cy="-369.1169"
               />
        <circle r="15.0" cx="-27.571133"
                class="node-109" cy="549.2753"
               />
        <circle r="15.0" cx="-359.02756"
                class="node-112" cy="-486.608"
               />
        <circle r="15.0" cx="-114.0996"
                class="node-113" cy="-242.31587"
               />
        <circle r="15.0" cx="-499.5536"
                class="node-117" cy="75.319756"
               />
        <circle r="15.0" cx="316.02322"
                class="node-119" cy="-63.463245"
               />
        <circle r="15.0" cx="165.11105"
                class="node-120" cy="129.1445"
               />
        <circle r="15.0" cx="65.75038"
                class="node-121" cy="69.85978"
               />
        <circle r="22.0" cx="-346.81467"
                class="node-123" cy="-897.875"
               />
        <circle r="22.0" cx="-335.75467"
                class="node-124" cy="-799.69275"
               />
        <circle r="22.0" cx="-469.42175"
                class="node-125" cy="-890.00604"
               />
        <circle r="36.0" cx="-450.46268"
                class="node-126" cy="-778.68207"
               />
        <circle r="36.0" cx="535.9105"
                class="node-127" cy="550.4984"
               />
        <circle r="36.0" cx="383.1053"
                class="node-128" cy="407.31897"
               />
        <circle r="36.0" cx="402.07867"
                class="node-129" cy="534.4607"
               />
        <circle r="36.0" cx="635.15704"
                class="node-130" cy="-707.7445"
               />
        <circle r="36.0" cx="749.9763"
                class="node-131" cy="-617.53015"
               />
        <circle r="36.0" cx="677.405"
                class="node-133" cy="-497.67014"
               />
        <circle r="36.0" cx="310.9512"
                class="node-137" cy="-911.36774"
               />
        <circle r="36.0" cx="1.966396"
                class="node-140" cy="-776.5968"
               />
        <circle r="10.0" cx="-26.322168"
                class="node-141" cy="-823.9058"
               />
    </g>
</svg>